<svg width="10" height="8" viewBox="0 0 10 8" fill="none" xmlns="http://www.w3.org/2000/svg"><g clip-path="url(#clip0_5706_2977)"><path d="M0.807138 6.03778C0.483498 5.988 0.211453 5.78889 0.0754307 5.35956C0.0285264 5.204 0.00507422 5.01733 0.00507422 4.84311C0.000383788 3.79778 0.000383788 2.74622 0.00507422 1.69467C0.00507422 0.954222 0.347476 0.5 0.900947 0.5C3.63078 0.5 6.36061 0.5 9.09044 0.5C9.6486 0.5 9.991 0.948 9.991 1.68844C9.99569 2.72756 9.991 3.76667 9.991 4.812C9.991 5.484 9.75648 5.86978 9.2593 6.01911C9.23115 6.02533 9.20301 6.044 9.1608 6.05644C9.1608 6.36133 9.1608 6.66622 9.1608 6.96489C9.1608 7.37556 9.07637 7.49378 8.7668 7.49378C7.41127 7.5 6.06042 7.49378 4.70489 7.49378C3.56511 7.49378 2.42534 7.49378 1.28556 7.49378C0.891566 7.49378 0.8259 7.40044 0.821209 6.87778C0.821209 6.62267 0.821209 6.36756 0.821209 6.11244C0.83059 6.1 0.821209 6.08133 0.807138 6.03778ZM1.12609 4.68756C1.12609 4.79956 1.19175 4.89289 1.28087 4.89289C1.78744 4.90533 3.3259 4.91778 4.18894 4.924C4.34372 4.924 4.44691 4.82444 4.44691 4.66889C4.44691 3.93467 4.4516 2.57822 4.4516 1.956C4.4516 1.77556 4.33903 1.63244 4.20301 1.63244H1.28556C1.20113 1.63244 1.13078 1.72578 1.13078 1.83778L1.12609 4.68756ZM8.86999 4.60044V1.94356C8.86999 1.77556 8.7668 1.63867 8.64016 1.63867H5.80245C5.67581 1.63867 5.57262 1.77556 5.57262 1.94356V4.60044C5.57262 4.76844 5.67581 4.90533 5.80245 4.90533H8.64016C8.7668 4.90533 8.86999 4.76844 8.86999 4.60044ZM1.93284 6.05022C1.74522 6.05022 1.58106 6.05022 1.40751 6.05022C1.40751 6.29289 1.40751 6.51067 1.40751 6.74089C1.58575 6.74089 1.75461 6.74089 1.93284 6.74089C1.93284 6.51067 1.93284 6.28667 1.93284 6.05022ZM3.03978 6.05022C2.85686 6.05022 2.688 6.05022 2.51446 6.05022C2.51446 6.29289 2.51446 6.51067 2.51446 6.74711C2.69269 6.74711 2.85686 6.74711 3.03978 6.74711C3.03978 6.51067 3.03978 6.29289 3.03978 6.05022ZM3.6214 6.74089C3.8137 6.74089 3.97787 6.74089 4.15142 6.74089C4.15142 6.49822 4.15142 6.28044 4.15142 6.05644C3.96849 6.05644 3.79963 6.05644 3.6214 6.05644C3.6214 6.29911 3.6214 6.51067 3.6214 6.74089ZM5.26305 6.05022C5.07543 6.05022 4.91127 6.05022 4.73772 6.05022C4.73772 6.29289 4.73772 6.51067 4.73772 6.74711C4.91596 6.74711 5.08481 6.74711 5.26305 6.74711C5.26305 6.51067 5.26305 6.29289 5.26305 6.05022ZM6.37468 6.05022C6.18706 6.05022 6.01821 6.05022 5.84466 6.05022C5.84466 6.29289 5.84466 6.51067 5.84466 6.74089C6.02759 6.74089 6.20114 6.74089 6.37468 6.74089C6.37468 6.50444 6.37468 6.29289 6.37468 6.05022ZM6.96568 6.044C6.96568 6.29289 6.96568 6.52311 6.96568 6.74089C7.15329 6.74089 7.31746 6.74089 7.48162 6.74089C7.48162 6.49822 7.48162 6.28044 7.48162 6.044C7.30339 6.044 7.14391 6.044 6.96568 6.044ZM8.06324 6.73467C8.24147 6.73467 8.41033 6.73467 8.58856 6.73467C8.58856 6.49822 8.58856 6.27422 8.58856 6.05022C8.40564 6.05022 8.23678 6.05022 8.06324 6.05022C8.06324 6.28667 8.06324 6.49822 8.06324 6.73467Z" fill="#6D6E72"></path><path d="M2.27955 4.17114H1.89025C1.77768 4.17114 1.68387 4.0467 1.68387 3.89737V2.64048C1.68387 2.48492 1.77768 2.3667 1.89025 2.3667H2.27955C2.39212 2.3667 2.48593 2.48492 2.48593 2.64048V3.89737C2.48593 4.0467 2.39212 4.17114 2.27955 4.17114Z" fill="#6D6E72"></path><path d="M3.66792 4.17114H3.27861C3.16604 4.17114 3.07224 4.0467 3.07224 3.89737V2.63425C3.07224 2.48492 3.16135 2.3667 3.27861 2.3667H3.66792C3.78049 2.3667 3.8743 2.49114 3.8743 2.64048V3.90359C3.8743 4.0467 3.78049 4.17114 3.66792 4.17114Z" fill="#6D6E72"></path><path d="M6.3274 2.35425H6.72139C6.83396 2.35425 6.92777 2.47869 6.92777 2.62803V3.89114C6.92777 4.04047 6.83396 4.16491 6.72139 4.16491H6.3274C6.21483 4.16491 6.12102 4.04047 6.12102 3.89114V2.62803C6.12571 2.47869 6.21483 2.35425 6.3274 2.35425Z" fill="#6D6E72"></path><path d="M8.11445 4.16491H7.71576C7.60319 4.16491 7.50938 4.04047 7.50938 3.89114V2.62803C7.50938 2.47869 7.60319 2.35425 7.71576 2.35425H8.11445C8.22702 2.35425 8.32083 2.47869 8.32083 2.62803V3.89114C8.32083 4.04669 8.22702 4.16491 8.11445 4.16491Z" fill="#6D6E72"></path></g><defs><clipPath id="clip0_5706_2977"><rect width="10" height="7" fill="white" transform="translate(0 0.5)"></rect></clipPath></defs></svg>